<?xml version="1.0" encoding="UTF-8" standalone="no"?>
<svg
   version="1.1"
   id="Layer_1"
   x="0px"
   y="0px"
   width="100%"
   viewBox="0 0 1200 1200"
   enable-background="new 0 0 1200 1200"
   xml:space="preserve"
   sodipodi:docname="file.svg"
   inkscape:export-filename="logo-light.png"
   inkscape:export-xdpi="96"
   inkscape:export-ydpi="96"
   inkscape:version="1.4.2 (ebf0e940d0, 2025-05-08)"
   xmlns:inkscape="http://www.inkscape.org/namespaces/inkscape"
   xmlns:sodipodi="http://sodipodi.sourceforge.net/DTD/sodipodi-0.dtd"
   xmlns="http://www.w3.org/2000/svg"
   xmlns:svg="http://www.w3.org/2000/svg"><defs
   id="defs3383" /><sodipodi:namedview
   id="namedview3383"
   pagecolor="#ffffff"
   bordercolor="#000000"
   borderopacity="0.25"
   inkscape:showpageshadow="2"
   inkscape:pageopacity="0.0"
   inkscape:pagecheckerboard="0"
   inkscape:deskcolor="#d1d1d1"
   inkscape:zoom="0.46845824"
   inkscape:cx="593.43603"
   inkscape:cy="630.79262"
   inkscape:window-width="1920"
   inkscape:window-height="1009"
   inkscape:window-x="0"
   inkscape:window-y="0"
   inkscape:window-maximized="1"
   inkscape:current-layer="Layer_1" />











































































































































































































































































































































































































































































































































































































































































































































































































































































































































































































































































































































































































































































































































































































































































































































































































































































































































































































































<rect
   style="fill:#f8f8ff;fill-opacity:1;stroke:none;stroke-width:30.798"
   id="rect3383"
   width="1200"
   height="1200"
   x="0"
   y="0"
   ry="317.371"
   inkscape:label="background" /><g
   id="g3383"
   transform="matrix(1.1522933,0,0,1.1522933,-85.979606,-72.057329)"
   inkscape:label="icon"><path
     fill="#fafcfc"
     opacity="1"
     stroke="none"
     d="m 723.75407,847.59026 c -0.62802,-0.0453 -1.09922,0.20486 -2.06507,1.40422 -9.6915,9.86981 -18.73188,19.08553 -27.77209,28.30123 0,0 -0.77715,0.3892 -0.89037,0.8875 -0.11359,0.4983 -0.37429,0.6393 -0.37429,0.6393 0,0 -0.83742,0.193 -1.53158,0.8367 -4.22505,4.3966 -7.75613,8.1495 -11.70436,11.9928 -0.96237,0.417 -1.21977,0.8975 -1.76792,1.7512 -4.13125,3.9466 -7.68449,7.6741 -11.23755,11.4015 0,0 -0.38528,0.2437 -0.99938,0.7012 -4.13162,4.2071 -7.64895,7.9569 -11.16647,11.7064 -10.48971,10.7964 -20.97924,21.5929 -31.46896,32.3892 -0.81122,-0.146 -1.62245,-0.2921 -2.43368,-0.4381 0,-11.2731 0,-22.5463 0,-35.486 -0.20739,-10.8775 -0.40854,-20.0884 -0.60989,-29.2994 0.19493,-10.4499 0.3895,-20.8998 0.48971,-33.01653 0.0348,-21.1852 0.16488,-40.70352 0.80683,-60.49815 28.43711,-28.54378 56.36254,-56.81149 84.52925,-85.72773 -0.14473,-0.90071 -0.53166,-1.15274 -0.80702,-1.42726 0.11176,-0.0225 0.33105,0.0328 0.28598,0.4069 -0.0458,0.37416 0.58241,0.79157 1.00525,0.89143 0.92627,-0.56291 1.42935,-1.22554 2.51502,-2.07278 4.29522,-3.79749 8.37481,-7.12041 11.56073,-11.15002 1.5096,-1.90976 2.53682,-5.67169 1.69097,-7.7381 -6.21538,-15.18243 -12.96004,-30.14804 -19.51709,-45.6903 -0.38235,-1.02192 -0.78558,-1.53551 -1.13147,-2.02739 0.0568,0.0216 0.044,-0.0999 -0.0824,-0.7426 -12.43132,-29.3189 -24.73658,-57.99513 -37.10487,-87.20027 -0.71505,-1.33747 -1.3667,-2.14591 -1.87949,-3.4371 -0.0183,-0.77931 -0.17221,-1.07597 -0.26656,-1.94491 -0.39151,-1.16985 -0.84274,-1.7674 -1.26356,-2.60783 0.0311,-0.24288 -0.38986,-0.49379 -0.46369,-1.16331 -3.8733,-9.37138 -7.67259,-18.07336 -11.49917,-27.43461 -3.63916,-8.72707 -7.25121,-16.7949 -10.88122,-25.39199 -0.5388,-1.42899 -1.05983,-2.3288 -1.59497,-3.87385 -1.68072,-4.02191 -3.34787,-7.39862 -5.10901,-10.63213 -0.0953,0.14308 0.17221,-0.0718 0.12457,-0.75607 -3.29474,-8.02261 -6.54075,-15.36105 -9.83036,-23.46283 -0.44958,-1.69009 -0.85538,-2.61685 -1.07339,-4.33578 0.18778,-93.27612 0.18778,-185.76007 0.18778,-278.24406 0.80757,-0.10717 1.6155,-0.21429 2.42306,-0.32143 1.40701,3.22525 2.82153,6.44732 4.2201,9.67625 10.28032,23.73603 20.55751,47.47332 30.84772,71.73595 0.31603,1.14848 0.61978,1.77121 0.94808,3.0441 4.54566,10.75759 9.06695,20.86501 13.66446,30.87783 0.0769,-0.0945 -0.15756,-0.0299 -0.13557,0.66303 5.05441,11.75529 10.08556,22.81775 15.61539,34.34294 4.35165,10.5269 8.20498,20.59122 12.07553,31.34909 2.93328,7.11962 5.84916,13.54552 8.87239,19.66849 0.10626,-0.30296 -0.14656,0.29201 -0.12091,0.94185 1.49311,3.69389 2.95966,6.73794 4.47384,10.45249 3.82053,9.35735 7.59344,18.0441 11.44512,27.37807 5.77441,13.09868 11.81336,25.4062 17.10411,38.02737 18.94458,45.19231 37.63561,90.49087 56.55033,136.44832 3.37498,6.98086 6.62173,13.26251 9.86407,19.92501 0,0.38074 0.23707,1.10331 0.022,1.75834 0.72109,2.68378 1.65653,4.7125 2.59215,6.74112 7.27082,17.81542 14.48576,35.654 21.83261,53.43813 4.75048,11.49979 9.69369,22.91996 15.07146,35.50383 2.97139,6.88045 5.42156,12.63296 7.33989,18.60052 -2.31295,2.13653 -4.09351,4.05801 -5.87425,5.97951 -26.9724,26.90027 -53.9448,53.80065 -81.11653,81.26034 -11.66954,11.76983 -23.13958,22.98045 -35.39612,35.00635 -3.51916,3.87431 -6.25184,6.93323 -8.98451,9.99202 z"
     id="path1397"
     inkscape:label="right"
     style="fill:#000000;fill-opacity:1;stroke-width:1.83204" /><path
     fill="#fbfdfd"
     opacity="1"
     stroke="none"
     d="m 572.31653,930.48721 c -0.0707,6.4881 -0.34386,12.3906 -0.66042,19.2316 -9.06862,-7.8551 -17.34119,-15.0208 -26.02829,-22.462 -1.63838,-2.3143 -2.50341,-4.7145 -4.13931,-6.3379 -29.97977,-29.7512 -60.05189,-59.4095 -90.1097,-89.03154 -0.005,0.0557 0.005,-0.0475 -0.21827,-0.61949 -8.6569,-8.7883 -17.09028,-17.00474 -25.56671,-25.11497 -0.0429,0.10626 0.16378,0.007 -0.0698,-0.55853 -5.06629,-5.15417 -9.8991,-9.74288 -14.85457,-14.79688 -1.11053,-1.23314 -2.09846,-2.00088 -3.31302,-3.32728 -1.44477,-1.56725 -2.66291,-2.57553 -4.10081,-4.13484 -22.80857,-23.15188 -45.39734,-45.75283 -67.75206,-68.96082 0.6305,-1.82613 1.02706,-3.04539 1.81471,-4.72592 11.00875,-25.20286 21.65855,-49.93081 32.17785,-74.71401 0.77288,-1.82087 0.60399,-4.04136 1.04521,-6.35143 0.17222,-0.27541 -0.048,-0.88651 0.59936,-1.06586 4.60397,-9.11135 8.56057,-18.04331 12.97178,-27.46462 11.19558,-25.98077 21.93656,-51.47229 33.10889,-77.41488 12.12911,-28.40614 23.82682,-56.36119 35.70634,-84.46755 0.18174,-0.15114 -0.009,-0.58418 0.5061,-1.0574 0.87452,-1.80868 1.23425,-3.14418 1.61018,-4.5469 0.0165,-0.0672 -0.0575,-0.18432 0.4721,-0.59404 2.32482,-4.87317 4.11985,-9.33665 6.22417,-14.14117 0.33301,-0.92894 0.3567,-1.51688 0.92575,-2.54478 5.06697,-11.51699 9.5887,-22.59395 14.03552,-33.66473 -0.0747,0.005 -0.0306,0.14968 0.49703,-0.27118 0.877,-2.62729 1.22632,-4.83358 1.45856,-7.03463 -0.11706,0.005 -0.055,0.23146 0.58715,-0.002 17.13447,-38.6858 33.62674,-77.13764 50.51486,-116.11344 11.73282,-27.01997 23.01132,-53.54123 34.45978,-79.98903 2.12255,-4.90364 4.92998,-9.5108 7.55504,-13.43184 0.18339,45.07301 0.28985,89.32304 0.2677,133.57295 -0.0251,50.04543 -0.16562,100.09082 -0.63916,150.41848 -3.12623,7.10201 -5.86904,13.92173 -8.93769,21.16552 -0.34539,0.7801 -0.36509,1.13614 -0.40948,1.51783 -0.0247,0.0257 -0.0348,0.0944 -0.50809,0.60538 -8.76773,20.2773 -17.06222,40.04353 -25.71476,60.22459 -0.79203,1.80174 -1.22599,3.18858 -2.08957,5.01748 -6.45686,14.94868 -12.48424,29.45522 -18.81967,44.32725 -0.32025,0.68383 -0.33256,1.00227 -0.72672,1.51625 -0.79569,0.6902 -0.86861,1.23086 -0.97483,2.29296 -1.01074,2.36407 -1.64732,4.25276 -2.76808,6.54398 -1.3133,2.75337 -2.14256,5.10419 -3.43552,7.90582 -5.03386,11.77586 -9.60401,23.1011 -14.67232,34.85093 -2.57999,6.19251 -4.66172,11.96047 -7.34928,17.9779 -4.00547,8.63007 -7.40511,17.01055 -10.69225,25.39787 0.11231,0.007 0.0396,-0.20609 -0.45499,0.15169 -0.81582,1.51963 -1.13696,2.68165 -1.49635,3.87453 -0.0383,0.031 -0.0564,0.12769 -0.53025,0.6226 -3.63244,4.83728 -2.03891,7.83102 1.54132,11.35208 21.47917,21.12393 42.8065,42.40541 63.97102,63.84499 11.90714,12.06203 23.40435,24.52894 34.91131,37.48729 -0.009,22.48487 0.15572,44.2957 0.32092,66.10659 -0.15096,22.7827 -0.30192,45.5654 -0.2507,68.9337 z"
     id="path1772"
     inkscape:label="left"
     style="fill:#000000;fill-opacity:1;stroke-width:1.83204" /></g>











































































































































































































































































































































































































































































































































































































































































































































































































































































































































































































































































































































































































































































































































































































































































































































































































































































</svg>
